# xmcd
#
# Track frame offsets: 
#        150
#        9118
#        18965
#        28308
#        38970
#        51875
#        63140
#        78778
#        91410
#        102640
#        116063
#        127945
#        138033
#        149443
#        158995
#        173503
#        186115
#        197455
#        211685
#        223608
#        235880
#        247883
#        260015
#        273678
#        284005
#        295833
#        308015
#        324440
#        336775
#
# Disc length: 4656 seconds
#
# Revision: 0
# Processed by: cddbd v1.5.2PL0 Copyright (c) Steve Scherf et al.
# Submitted via: ExactAudioCopy v0.99pb4
#
DISCID=9c122e1d
DTITLE=Bobby Patterson - Taking Care Of Business
DYEAR=1900
DGENRE=Soul
TTITLE0=Till You Give In
TTITLE1=You Just Got To Understand
TTITLE2=Whats Your Problem Baby
TTITLE3=If I Didint Have You
TTITLE4=Long Ago
TTITLE5=Soul Is Our Music
TTITLE6=Let Them Talk
TTITLE7=Sock Some Lovin At Me
TTITLE8=Im Leroy
TTITLE9=Broadway Aint Funky No More
TTITLE10=I Met My Match
TTITLE11=Dont Be So Mean
TTITLE12=The Good Ol Days
TTITLE13=Busy Busy Bee
TTITLE14=Sweet Taste Of Love
TTITLE15=TCB or TYA
TTITLE16=What A Wonderful Night For Love
TTITLE17=My Thing Is Your Thing
TTITLE18=Keeping It In The Family
TTITLE19=My Babys Coming Back To Me
TTITLE20=Guess Who
TTITLE21=The Knockout Power Of Love
TTITLE22=The Trial Of Mary McGuire
TTITLE23=If A Man Ever Loved A Woman
TTITLE24=You Taught Me How To Love
TTITLE25=Im In Love With You
TTITLE26=Married Lady
TTITLE27=If I Didnt Know Better
TTITLE28=Who Wants To Fall In Love
EXTD=
EXTT0=
EXTT1=
EXTT2=
EXTT3=
EXTT4=
EXTT5=
EXTT6=
EXTT7=
EXTT8=
EXTT9=
EXTT10=
EXTT11=
EXTT12=
EXTT13=
EXTT14=
EXTT15=
EXTT16=
EXTT17=
EXTT18=
EXTT19=
EXTT20=
EXTT21=
EXTT22=
EXTT23=
EXTT24=
EXTT25=
EXTT26=
EXTT27=
EXTT28=
PLAYORDER=
